<svg width="115" height="121" viewBox="0 0 115 121" fill="none" xmlns="http://www.w3.org/2000/svg">
<path d="M13.3086 0C5.95847 0 0 5.99707 0 13.3948V76.3506C0 101.01 19.8615 121 44.362 121H92.819C105.069 121 115 111.005 115 98.6753V44.6494C115 19.9902 95.1385 0 70.638 0H13.3086Z" fill="#003734"/>
<path d="M53.7081 44.6418C39.3798 34.9916 43.6027 29.2567 65.4397 34.6591C90.4174 40.8376 101.902 51.1187 96.0554 61.4106C89.2354 73.4125 66.8021 81.0872 42.3552 86.1258C15.9707 91.564 8.2323 87.0033 32.3726 75.6456C54.7422 65.1212 74.3715 58.5607 53.7081 44.6418Z" fill="#EEFFFB"/>
</svg>
